#N canvas 48 243 726 507 10;
#X declare -lib mrpeach;
#X obj 23 18 import mrpeach;
#X obj 359 227 s msg;
#X msg 359 58 /cannon/shoot 12;
#X msg 432 88 /cannon/shoot 1;
#X msg 492 127 /cannon/shoot 2;
#X msg 527 186 /cannon/shoot 3;
#X msg 512 245 /cannon/shoot 4;
#X msg 454 299 /cannon/shoot 5;
#X msg 359 341 /cannon/shoot 6;
#X msg 238 286 /cannon/shoot 7;
#X msg 191 226 /cannon/shoot 8;
#X msg 202 180 /cannon/shoot 9;
#X msg 209 137 /cannon/shoot 10;
#X msg 235 92 /cannon/shoot 11;
#X obj 5 89 cnv 15 160 200 empty empty empty 20 12 0 14 -261682 -66577
0;
#X obj 57 203 packOSC;
#X obj 30 235 udpsend;
#X msg 10 109 connect localhost 6969;
#X obj 57 166 r msg;
#X msg 30 133 disconnect;
#X connect 2 0 1 0;
#X connect 3 0 1 0;
#X connect 4 0 1 0;
#X connect 5 0 1 0;
#X connect 6 0 1 0;
#X connect 7 0 1 0;
#X connect 8 0 1 0;
#X connect 9 0 1 0;
#X connect 10 0 1 0;
#X connect 11 0 1 0;
#X connect 12 0 1 0;
#X connect 13 0 1 0;
#X connect 15 0 16 0;
#X connect 17 0 16 0;
#X connect 18 0 15 0;
#X connect 19 0 16 0;
